<?xml version="1.0" encoding="utf-8"?>
<!-- Generator: Adobe Illustrator 24.3.0, SVG Export Plug-In . SVG Version: 6.00 Build 0)  -->
<svg version="1.1"
	 id="svg3" xmlns:cc="http://creativecommons.org/ns#" xmlns:dc="http://purl.org/dc/elements/1.1/" xmlns:inkscape="http://www.inkscape.org/namespaces/inkscape" xmlns:rdf="http://www.w3.org/1999/02/22-rdf-syntax-ns#" xmlns:sodipodi="http://sodipodi.sourceforge.net/DTD/sodipodi-0.dtd" xmlns:svg="http://www.w3.org/2000/svg"
	 xmlns="http://www.w3.org/2000/svg" xmlns:xlink="http://www.w3.org/1999/xlink" x="0px" y="0px" viewBox="0 0 522.8 95.5"
	 style="enable-background:new 0 0 522.8 95.5;" xml:space="preserve">
<style type="text/css">
	.st0{display:none;fill:#FFFFFF;stroke:#1D1D1B;stroke-miterlimit:10;}
	.st1{fill:#BBC3CE;}
	.st2{fill:#FFFFFF;}
	.st3{font-family:'MyriadPro-Regular';}
	.st4{font-size:10.7459px;}
	.st5{display:none;enable-background:new    ;}
	.st6{font-family:'ArialMT';}
	.st7{font-size:31.5279px;}
	.st8{font-size:22.0472px;}
	.st9{font-size:10.7457px;}
	.st10{font-size:10.6884px;}
	.st11{fill:#FFF3F3;}
	.st12{fill:#FFFDFD;}
	.st13{font-size:11.1772px;}
</style>
<ellipse transform="matrix(0.2298 -0.9732 0.9732 0.2298 151.6591 288.0295)" class="st0" cx="257.8" cy="48.2" rx="39.3" ry="39.3"/>
<image style="overflow:visible;" width="833" height="171" xlink:href="../../../../../../Downloads/Screenshot - 2022-07-24T223359.358.png"  transform="matrix(0.6402 0 0 0.6402 -5 -6.9885)">
</image>
<rect x="47" y="60" class="st1" width="419" height="26"/>
<text transform="matrix(1 0 0 1 395.0297 67.2617)"><tspan x="0" y="0" class="st2 st3 st4">  TODA EM</tspan><tspan x="0" y="12.9" class="st2 st3 st4">SEDA GELO</tspan></text>
<text transform="matrix(1.073 0 0 1 226.5273 55.9556)" class="st5 st6 st7">35%</text>
<text transform="matrix(1 0 0 1 50.0019 55.4592)" class="st5 st6 st8">FRETE GRATUITO</text>
<text transform="matrix(1 0 0 1 309.7214 55.4594)" class="st5 st6 st8">PARA TODO BRASIL</text>
<text transform="matrix(1 0 0 1 144.3545 67.3584)"><tspan x="0" y="0" class="st2 st3 st9">NÃO POSSUI COSTURA</tspan><tspan x="0" y="12.9" class="st2 st3 st9"> CAIMENTO A LASER</tspan></text>
<text transform="matrix(1 0 0 1 261.4 67.2617)"><tspan x="0" y="0" class="st3 st10">     </tspan><tspan x="11.3" y="0" class="st11 st3 st10">CONTÉM ALGODÃO</tspan><tspan x="0" y="12.8" class="st11 st3 st10">ESPECÍFICO PARA VIRILHA</tspan></text>
<text transform="matrix(1 0 0 1 53.7881 67.2617)"><tspan x="0" y="0" class="st12 st3 st13">N</tspan><tspan x="7.4" y="0" class="st2 st3 st13">ÃO É ABAFADA</tspan><tspan x="0" y="13.4" class="st2 st3 st13">É IMPERMEÁVEL</tspan></text>
</svg>
